<mxfile host="app.diagrams.net" modified="2021-03-23T12:04:37.180Z" agent="5.0 (Windows)" etag="cmGdBNNuzmJMi_vIYvkZ" version="14.2.7" type="github">
  <diagram id="WE60ro0TXeA0uUpYlk1_" name="Page-1">
    <mxGraphModel dx="502" dy="305" grid="1" gridSize="10" guides="1" tooltips="1" connect="1" arrows="1" fold="1" page="1" pageScale="1" pageWidth="827" pageHeight="1169" math="0" shadow="0">
      <root>
        <mxCell id="0" />
        <mxCell id="1" parent="0" />
        <mxCell id="B1Pb4UKUGP_vNJc-zjGJ-31" value="" style="triangle;whiteSpace=wrap;html=1;rotation=-90;aspect=fixed;" vertex="1" parent="1">
          <mxGeometry x="320" y="80" width="120" height="160" as="geometry" />
        </mxCell>
        <mxCell id="B1Pb4UKUGP_vNJc-zjGJ-2" value="M2" style="ellipse;whiteSpace=wrap;html=1;aspect=fixed;" vertex="1" parent="1">
          <mxGeometry x="280" y="200" width="40" height="40" as="geometry" />
        </mxCell>
        <mxCell id="B1Pb4UKUGP_vNJc-zjGJ-17" value="M3" style="ellipse;whiteSpace=wrap;html=1;aspect=fixed;" vertex="1" parent="1">
          <mxGeometry x="440" y="200" width="40" height="40" as="geometry" />
        </mxCell>
        <mxCell id="B1Pb4UKUGP_vNJc-zjGJ-22" value="M1" style="ellipse;whiteSpace=wrap;html=1;aspect=fixed;" vertex="1" parent="1">
          <mxGeometry x="360" y="80" width="40" height="40" as="geometry" />
        </mxCell>
      </root>
    </mxGraphModel>
  </diagram>
</mxfile>
